<svg version="1.1" id="Layer_1" xmlns="http://www.w3.org/2000/svg" xmlns:xlink="http://www.w3.org/1999/xlink" x="0px" y="0px"
	 width="100%" viewBox="0 0 975 222" enable-background="new 0 0 975 222" xml:space="preserve">
<path fill="#FEFEFE" opacity="1.000000" stroke="none" 
	d="
M729.000000,223.000000 
	C486.000000,223.000000 243.500000,223.000000 1.000000,223.000000 
	C1.000000,149.000000 1.000000,75.000000 1.000000,1.000000 
	C326.000000,1.000000 651.000000,1.000000 976.000000,1.000000 
	C976.000000,75.000000 976.000000,149.000000 976.000000,223.000000 
	C893.833313,223.000000 811.666687,223.000000 729.000000,223.000000 
M160.387268,131.500946 
	C160.387817,126.503494 160.100281,121.484261 160.475891,116.515160 
	C160.803070,112.186958 158.984772,110.354652 155.064438,109.015152 
	C136.518066,102.678185 118.072121,96.047745 99.577728,89.557945 
	C89.958496,86.182518 80.313049,82.881805 69.908325,79.280434 
	C70.322334,81.404045 70.377617,82.715683 70.834198,83.868362 
	C74.810135,93.906166 79.198608,103.796097 82.765884,113.974815 
	C85.184525,120.876053 88.866707,125.791069 96.031021,128.090927 
	C99.956192,129.350967 103.639824,131.394348 107.375298,133.202438 
	C109.502251,134.231934 111.514252,135.498932 114.656212,137.265030 
	C95.472374,148.343689 77.370361,158.797592 58.265419,169.830688 
	C58.050320,166.475906 57.820881,164.556595 57.819832,162.637146 
	C57.796852,120.656380 57.799076,78.675598 57.796909,36.694820 
	C57.796364,26.124741 57.846020,25.991053 48.147839,22.440449 
	C37.926483,18.698305 27.598831,15.246490 16.738874,11.466380 
	C16.585043,13.738514 16.382124,15.341179 16.381676,16.943901 
	C16.365538,74.584175 16.399277,132.224518 16.288582,189.864578 
	C16.282194,193.190994 17.412462,194.985535 20.221878,196.506531 
	C31.602961,202.668137 42.831612,209.113617 54.267330,215.169540 
	C55.957344,216.064529 58.941650,216.276138 60.511303,215.378021 
	C92.650635,196.988800 124.701759,178.444077 156.636627,159.702301 
	C158.471237,158.625610 160.079590,155.665787 160.222031,153.479980 
	C160.676071,146.512863 160.387878,139.497391 160.387268,131.500946 
M292.960693,127.721443 
	C288.697449,119.975891 282.103851,115.418839 272.500031,113.545319 
	C274.979858,112.428345 276.585297,111.702751 278.192688,110.981651 
	C286.154144,107.410072 290.736420,101.272041 291.791351,92.641609 
	C294.064728,74.043556 281.103973,58.623642 262.307495,58.054203 
	C247.659134,57.610435 232.990799,57.819756 218.331238,57.768509 
	C217.561829,57.765820 216.791443,58.040707 216.072632,58.176701 
	C216.072632,96.864532 216.072632,135.257034 216.072632,173.047302 
	C233.994781,173.047302 251.703293,174.263779 269.173889,172.744492 
	C291.861542,170.771500 302.758972,149.483643 292.960693,127.721443 
M449.395264,150.980209 
	C453.689453,160.810150 460.669708,167.949677 471.067322,170.901398 
	C486.278625,175.219635 499.596191,172.804337 508.669098,157.705353 
	C509.030121,165.073471 509.245911,171.568146 508.974121,178.042343 
	C508.652069,185.713242 504.863922,191.209549 497.667297,194.230377 
	C486.521820,198.908783 470.802795,197.874146 462.286346,186.646820 
	C461.497375,185.606750 460.752075,184.533539 459.937439,183.407867 
	C455.951538,186.293686 452.639801,188.691437 449.328033,191.089172 
	C448.849121,191.830383 448.370178,192.571609 447.891235,193.312820 
	C451.006531,195.557648 454.234283,197.663254 457.216766,200.072479 
	C467.584686,208.447525 479.592163,209.116241 492.150726,208.074158 
	C511.143738,206.498123 522.533020,194.447037 522.549866,175.398590 
	C522.574341,147.749512 522.556213,120.100410 522.556213,92.451317 
	C522.556213,90.700256 522.556213,88.949196 522.556213,87.260460 
	C517.880371,87.260460 513.960022,87.260460 509.448853,87.260460 
	C509.448853,91.770287 509.448853,95.954903 509.448853,100.139526 
	C507.117340,98.797684 506.161713,96.708298 504.544525,95.517227 
	C500.083496,92.231674 495.692932,87.602158 490.652618,86.584633 
	C475.298737,83.485023 460.758881,87.689217 451.992004,103.437782 
	C443.655151,118.413857 443.599518,134.257797 449.395264,150.980209 
M804.634949,67.840797 
	C800.829590,57.705166 800.824585,57.893814 791.287231,57.641273 
	C787.534973,57.541920 785.821350,58.640392 784.507080,62.284317 
	C773.447876,92.945679 762.143555,123.518677 750.914001,154.118576 
	C748.538940,160.590271 746.167725,167.063400 743.622314,174.006256 
	C747.580444,174.006256 750.761108,173.749390 753.880859,174.075409 
	C757.292053,174.431915 758.853821,173.219437 759.928284,169.936157 
	C763.079956,160.305756 766.617126,150.801483 770.088074,141.008743 
	C785.070923,141.008743 799.871887,140.934296 814.668640,141.148956 
	C815.862854,141.166275 817.605530,142.949463 818.113464,144.284805 
	C821.423645,152.986359 824.378235,161.823059 827.677734,170.528915 
	C828.201538,171.911057 829.785156,173.705795 831.041077,173.844910 
	C834.939331,174.276718 838.915771,174.002914 843.567139,174.002914 
	C830.529297,138.440109 817.721130,103.503792 804.634949,67.840797 
M643.804016,152.749634 
	C646.293457,159.778030 648.782837,166.806442 651.277100,173.848587 
	C656.235291,173.848587 660.868591,173.848587 665.880981,173.848587 
	C665.270813,172.048279 664.779358,170.489746 664.217590,168.956985 
	C651.738220,134.904755 639.250244,100.855698 626.766174,66.805191 
	C623.428955,57.702908 623.426880,57.903229 613.710876,57.635120 
	C609.892212,57.529747 608.262878,58.798435 606.973267,62.352356 
	C594.205688,97.538025 581.237305,132.650818 568.345764,167.791565 
	C567.648315,169.692657 567.127808,171.658661 566.442383,173.859451 
	C571.698975,173.859451 576.176392,173.859451 580.910950,173.859451 
	C584.362427,164.093689 587.704529,154.340698 591.329590,144.694077 
	C591.885742,143.214035 593.729370,141.187592 595.006836,141.166199 
	C609.809082,140.918350 624.616943,141.007828 639.525635,141.007828 
	C640.923035,144.865112 642.218933,148.442322 643.804016,152.749634 
M420.420471,174.004623 
	C421.867584,173.920380 423.314697,173.836151 424.863434,173.746002 
	C424.863434,152.810516 425.459290,132.171417 424.657440,111.586754 
	C424.107544,97.469696 414.169464,87.508240 401.576660,86.025856 
	C388.573212,84.495148 377.398499,87.281189 370.315308,99.527527 
	C370.239655,99.658287 369.739960,99.543785 368.978333,99.543785 
	C368.978333,95.540543 368.978333,91.480949 368.978333,87.300186 
	C364.479309,87.300186 360.447571,87.300186 356.481781,87.300186 
	C356.481781,116.374908 356.481781,145.083374 356.481781,173.716156 
	C360.959442,173.716156 365.053009,173.716156 369.555298,173.716156 
	C369.555298,171.460709 369.546936,169.490326 369.556641,167.520035 
	C369.638672,150.868866 369.201202,134.193634 369.966583,117.573830 
	C370.630432,103.158913 384.387238,94.379768 398.276764,98.506393 
	C406.946503,101.082199 411.762665,108.272873 411.850403,119.435287 
	C411.978699,135.756577 411.881653,152.079605 411.880646,168.401901 
	C411.880554,170.162125 411.880646,171.922333 411.880646,174.004440 
	C414.848083,174.004440 417.153687,174.004440 420.420471,174.004623 
M936.412170,65.938812 
	C933.606079,65.938812 930.799927,65.938812 927.409363,65.938812 
	C927.409363,73.048653 927.409363,79.782585 927.409363,87.041229 
	C922.762939,87.041229 918.684875,87.041229 914.600952,87.041229 
	C914.600952,90.984718 914.600952,94.375427 914.600952,98.230438 
	C919.046631,98.230438 923.134949,98.230438 927.451111,98.230438 
	C927.451111,116.020142 927.381287,133.340195 927.470154,150.659470 
	C927.565063,169.154907 943.279724,179.843338 961.007996,173.257629 
	C960.203735,169.625916 959.389832,165.950394 958.516113,162.004929 
	C957.309204,162.004929 956.346497,161.990952 955.384277,162.007034 
	C943.824280,162.200302 941.003601,159.393066 940.998047,147.662033 
	C940.992981,136.999542 940.996948,126.337059 940.996948,115.674568 
	C940.996948,109.904938 940.996948,104.135315 940.996948,97.835358 
	C947.464417,97.835358 953.353027,97.835358 959.132263,97.835358 
	C959.132263,93.907806 959.132263,90.534416 959.132263,86.769279 
	C952.950073,86.769279 947.178772,86.769279 940.995789,86.769279 
	C940.995789,80.743835 940.843872,75.110161 941.058350,69.490471 
	C941.169617,66.573807 940.128845,65.526535 936.412170,65.938812 
M868.410645,86.933411 
	C865.798035,86.933411 863.185425,86.933411 860.386292,86.933411 
	C860.386292,116.177612 860.386292,144.877396 860.386292,173.792175 
	C864.768311,173.792175 868.873596,173.792175 873.559631,173.792175 
	C873.559631,171.897736 873.559570,170.110092 873.559570,168.322449 
	C873.559998,152.007324 873.469238,135.691528 873.592468,119.377327 
	C873.676453,108.263680 880.083313,100.583839 890.843872,98.948906 
	C894.848938,98.340378 899.023987,98.850464 903.670654,98.850464 
	C904.900818,95.805275 906.319092,92.294388 908.326721,87.324692 
	C903.120361,86.662193 898.472107,85.374191 893.913330,85.636932 
	C884.678528,86.169174 877.972046,91.238625 873.379150,99.449768 
	C873.002014,96.317268 872.819275,93.380745 873.053223,90.477814 
	C873.289246,87.549759 872.120361,86.525040 868.410645,86.933411 
M690.512817,57.747601 
	C688.602661,57.747601 686.692505,57.747601 684.938354,57.747601 
	C684.938354,96.960587 684.938354,135.329254 684.938354,173.712036 
	C689.578674,173.712036 693.838562,173.712036 698.147705,173.712036 
	C698.147705,135.037750 698.147705,96.649467 698.147705,57.747475 
	C695.744080,57.747475 693.622009,57.747475 690.512817,57.747601 
M331.557861,145.500137 
	C331.557861,126.081879 331.557861,106.663612 331.557861,87.361099 
	C326.720245,87.361099 322.508026,87.361099 318.338440,87.361099 
	C318.338440,116.352135 318.338440,144.915558 318.338440,173.690826 
	C322.777191,173.690826 326.974731,173.690826 331.557495,173.690826 
	C331.557495,164.419098 331.557495,155.459610 331.557861,145.500137 
M315.284210,62.654079 
	C315.616302,64.101395 315.711395,65.659203 316.325012,66.975250 
	C318.141357,70.870789 322.862701,73.027000 327.279785,71.885925 
	C331.578827,70.775337 334.254944,67.866104 334.426941,63.381439 
	C334.600525,58.855507 331.989746,55.889313 327.849426,54.413101 
	C322.564728,52.528873 317.634247,55.575191 315.284210,62.654079 
z"/>
<path fill="#218777" opacity="1.000000" stroke="none" 
	d="
M160.386841,132.000763 
	C160.387878,139.497391 160.676071,146.512863 160.222031,153.479980 
	C160.079590,155.665787 158.471237,158.625610 156.636627,159.702301 
	C124.701759,178.444077 92.650635,196.988800 60.511303,215.378021 
	C58.941650,216.276138 55.957344,216.064529 54.267330,215.169540 
	C42.831612,209.113617 31.602961,202.668137 20.221878,196.506531 
	C17.412462,194.985535 16.282194,193.190994 16.288582,189.864578 
	C16.399277,132.224518 16.365538,74.584175 16.381676,16.943901 
	C16.382124,15.341179 16.585043,13.738514 16.738874,11.466380 
	C27.598831,15.246490 37.926483,18.698305 48.147839,22.440449 
	C57.846020,25.991053 57.796364,26.124741 57.796909,36.694820 
	C57.799076,78.675598 57.796852,120.656380 57.819832,162.637146 
	C57.820881,164.556595 58.050320,166.475906 58.265419,169.830688 
	C77.370361,158.797592 95.472374,148.343689 114.656212,137.265030 
	C111.514252,135.498932 109.502251,134.231934 107.375298,133.202438 
	C103.639824,131.394348 99.956192,129.350967 96.031021,128.090927 
	C88.866707,125.791069 85.184525,120.876053 82.765884,113.974815 
	C79.198608,103.796097 74.810135,93.906166 70.834198,83.868362 
	C70.377617,82.715683 70.322334,81.404045 69.908325,79.280434 
	C80.313049,82.881805 89.958496,86.182518 99.577728,89.557945 
	C118.072121,96.047745 136.518066,102.678185 155.064438,109.015152 
	C158.984772,110.354652 160.803070,112.186958 160.475891,116.515160 
	C160.100281,121.484261 160.387817,126.503494 160.386841,132.000763 
z"/>
<path fill="#1F8675" opacity="1.000000" stroke="none" 
	d="
M293.124207,128.059326 
	C302.758972,149.483643 291.861542,170.771500 269.173889,172.744492 
	C251.703293,174.263779 233.994781,173.047302 216.072632,173.047302 
	C216.072632,135.257034 216.072632,96.864532 216.072632,58.176701 
	C216.791443,58.040707 217.561829,57.765820 218.331238,57.768509 
	C232.990799,57.819756 247.659134,57.610435 262.307495,58.054203 
	C281.103973,58.623642 294.064728,74.043556 291.791351,92.641609 
	C290.736420,101.272041 286.154144,107.410072 278.192688,110.981651 
	C276.585297,111.702751 274.979858,112.428345 272.500031,113.545319 
	C282.103851,115.418839 288.697449,119.975891 293.124207,128.059326 
M229.761108,155.444183 
	C229.761108,157.224365 229.761108,159.004547 229.761108,160.879272 
	C242.430389,160.879272 254.609940,161.667816 266.637787,160.654968 
	C278.398438,159.664612 285.210419,149.449600 282.637268,138.646744 
	C280.512665,129.726913 274.744690,123.157440 265.833160,122.261551 
	C254.044556,121.076439 242.047028,121.969749 229.989014,121.969749 
	C230.023865,121.862427 229.840912,122.164375 229.839859,122.466949 
	C229.802994,133.130432 229.783188,143.793976 229.761108,155.444183 
M260.566193,108.292725 
	C261.704559,108.074196 262.878754,107.968338 263.975677,107.619522 
	C273.801788,104.494865 279.101318,96.892105 278.423462,86.967987 
	C277.817871,78.101555 272.296692,71.730019 261.954193,70.753220 
	C251.473160,69.763344 240.825760,70.534798 230.097015,70.534798 
	C230.097015,83.240173 230.097015,95.910065 230.097015,108.534149 
	C240.203720,108.534149 249.967834,108.534149 260.566193,108.292725 
z"/>
<path fill="#1F8675" opacity="1.000000" stroke="none" 
	d="
M449.245300,150.625305 
	C443.599518,134.257797 443.655151,118.413857 451.992004,103.437782 
	C460.758881,87.689217 475.298737,83.485023 490.652618,86.584633 
	C495.692932,87.602158 500.083496,92.231674 504.544525,95.517227 
	C506.161713,96.708298 507.117340,98.797684 509.448853,100.139526 
	C509.448853,95.954903 509.448853,91.770287 509.448853,87.260460 
	C513.960022,87.260460 517.880371,87.260460 522.556213,87.260460 
	C522.556213,88.949196 522.556213,90.700256 522.556213,92.451317 
	C522.556213,120.100410 522.574341,147.749512 522.549866,175.398590 
	C522.533020,194.447037 511.143738,206.498123 492.150726,208.074158 
	C479.592163,209.116241 467.584686,208.447525 457.216766,200.072479 
	C454.234283,197.663254 451.006531,195.557648 447.891235,193.312820 
	C448.370178,192.571609 448.849121,191.830383 449.328033,191.089172 
	C452.639801,188.691437 455.951538,186.293686 459.937439,183.407867 
	C460.752075,184.533539 461.497375,185.606750 462.286346,186.646820 
	C470.802795,197.874146 486.521820,198.908783 497.667297,194.230377 
	C504.863922,191.209549 508.652069,185.713242 508.974121,178.042343 
	C509.245911,171.568146 509.030121,165.073471 508.669098,157.705353 
	C499.596191,172.804337 486.278625,175.219635 471.067322,170.901398 
	C460.669708,167.949677 453.689453,160.810150 449.245300,150.625305 
M501.156952,104.344612 
	C489.794525,93.785713 472.004761,95.373779 464.476135,108.408585 
	C456.712738,121.849754 456.290497,136.236237 464.100037,149.830322 
	C472.879150,165.112091 497.399567,164.637680 504.995300,148.847076 
	C512.149353,133.974609 511.509705,118.871231 501.156952,104.344612 
z"/>
<path fill="#1F8676" opacity="1.000000" stroke="none" 
	d="
M804.773926,68.204132 
	C817.721130,103.503792 830.529297,138.440109 843.567139,174.002914 
	C838.915771,174.002914 834.939331,174.276718 831.041077,173.844910 
	C829.785156,173.705795 828.201538,171.911057 827.677734,170.528915 
	C824.378235,161.823059 821.423645,152.986359 818.113464,144.284805 
	C817.605530,142.949463 815.862854,141.166275 814.668640,141.148956 
	C799.871887,140.934296 785.070923,141.008743 770.088074,141.008743 
	C766.617126,150.801483 763.079956,160.305756 759.928284,169.936157 
	C758.853821,173.219437 757.292053,174.431915 753.880859,174.075409 
	C750.761108,173.749390 747.580444,174.006256 743.622314,174.006256 
	C746.167725,167.063400 748.538940,160.590271 750.914001,154.118576 
	C762.143555,123.518677 773.447876,92.945679 784.507080,62.284317 
	C785.821350,58.640392 787.534973,57.541920 791.287231,57.641273 
	C800.824585,57.893814 800.829590,57.705166 804.773926,68.204132 
M800.474365,128.752838 
	C804.254700,128.752838 808.035095,128.752838 812.750244,128.752838 
	C806.360291,110.736473 800.234253,93.464279 793.598572,74.755157 
	C786.961548,93.441917 780.833008,110.697121 774.420166,128.752701 
	C783.318054,128.752701 791.400818,128.752701 800.474365,128.752838 
z"/>
<path fill="#1F8675" opacity="1.000000" stroke="none" 
	d="
M643.659424,152.384583 
	C642.218933,148.442322 640.923035,144.865112 639.525635,141.007828 
	C624.616943,141.007828 609.809082,140.918350 595.006836,141.166199 
	C593.729370,141.187592 591.885742,143.214035 591.329590,144.694077 
	C587.704529,154.340698 584.362427,164.093689 580.910950,173.859451 
	C576.176392,173.859451 571.698975,173.859451 566.442383,173.859451 
	C567.127808,171.658661 567.648315,169.692657 568.345764,167.791565 
	C581.237305,132.650818 594.205688,97.538025 606.973267,62.352356 
	C608.262878,58.798435 609.892212,57.529747 613.710876,57.635120 
	C623.426880,57.903229 623.428955,57.702908 626.766174,66.805191 
	C639.250244,100.855698 651.738220,134.904755 664.217590,168.956985 
	C664.779358,170.489746 665.270813,172.048279 665.880981,173.848587 
	C660.868591,173.848587 656.235291,173.848587 651.277100,173.848587 
	C648.782837,166.806442 646.293457,159.778030 643.659424,152.384583 
M613.516541,82.025375 
	C608.050598,97.427948 602.584717,112.830513 597.042664,128.447601 
	C610.125671,128.447601 622.357117,128.447601 635.169067,128.447601 
	C628.876831,110.743500 622.747620,93.498222 616.153076,74.943436 
	C615.020935,77.996338 614.407043,79.651688 613.516541,82.025375 
z"/>
<path fill="#1F8675" opacity="1.000000" stroke="none" 
	d="
M419.939880,174.004532 
	C417.153687,174.004440 414.848083,174.004440 411.880646,174.004440 
	C411.880646,171.922333 411.880554,170.162125 411.880646,168.401901 
	C411.881653,152.079605 411.978699,135.756577 411.850403,119.435287 
	C411.762665,108.272873 406.946503,101.082199 398.276764,98.506393 
	C384.387238,94.379768 370.630432,103.158913 369.966583,117.573830 
	C369.201202,134.193634 369.638672,150.868866 369.556641,167.520035 
	C369.546936,169.490326 369.555298,171.460709 369.555298,173.716156 
	C365.053009,173.716156 360.959442,173.716156 356.481781,173.716156 
	C356.481781,145.083374 356.481781,116.374908 356.481781,87.300186 
	C360.447571,87.300186 364.479309,87.300186 368.978333,87.300186 
	C368.978333,91.480949 368.978333,95.540543 368.978333,99.543785 
	C369.739960,99.543785 370.239655,99.658287 370.315308,99.527527 
	C377.398499,87.281189 388.573212,84.495148 401.576660,86.025856 
	C414.169464,87.508240 424.107544,97.469696 424.657440,111.586754 
	C425.459290,132.171417 424.863434,152.810516 424.863434,173.746002 
	C423.314697,173.836151 421.867584,173.920380 419.939880,174.004532 
z"/>
<path fill="#1E8575" opacity="1.000000" stroke="none" 
	d="
M936.885803,65.939087 
	C940.128845,65.526535 941.169617,66.573807 941.058350,69.490471 
	C940.843872,75.110161 940.995789,80.743835 940.995789,86.769279 
	C947.178772,86.769279 952.950073,86.769279 959.132263,86.769279 
	C959.132263,90.534416 959.132263,93.907806 959.132263,97.835358 
	C953.353027,97.835358 947.464417,97.835358 940.996948,97.835358 
	C940.996948,104.135315 940.996948,109.904938 940.996948,115.674568 
	C940.996948,126.337059 940.992981,136.999542 940.998047,147.662033 
	C941.003601,159.393066 943.824280,162.200302 955.384277,162.007034 
	C956.346497,161.990952 957.309204,162.004929 958.516113,162.004929 
	C959.389832,165.950394 960.203735,169.625916 961.007996,173.257629 
	C943.279724,179.843338 927.565063,169.154907 927.470154,150.659470 
	C927.381287,133.340195 927.451111,116.020142 927.451111,98.230438 
	C923.134949,98.230438 919.046631,98.230438 914.600952,98.230438 
	C914.600952,94.375427 914.600952,90.984718 914.600952,87.041229 
	C918.684875,87.041229 922.762939,87.041229 927.409363,87.041229 
	C927.409363,79.782585 927.409363,73.048653 927.409363,65.938812 
	C930.799927,65.938812 933.606079,65.938812 936.885803,65.939087 
z"/>
<path fill="#208776" opacity="1.000000" stroke="none" 
	d="
M868.886292,86.933693 
	C872.120361,86.525040 873.289246,87.549759 873.053223,90.477814 
	C872.819275,93.380745 873.002014,96.317268 873.379150,99.449768 
	C877.972046,91.238625 884.678528,86.169174 893.913330,85.636932 
	C898.472107,85.374191 903.120361,86.662193 908.326721,87.324692 
	C906.319092,92.294388 904.900818,95.805275 903.670654,98.850464 
	C899.023987,98.850464 894.848938,98.340378 890.843872,98.948906 
	C880.083313,100.583839 873.676453,108.263680 873.592468,119.377327 
	C873.469238,135.691528 873.559998,152.007324 873.559570,168.322449 
	C873.559570,170.110092 873.559631,171.897736 873.559631,173.792175 
	C868.873596,173.792175 864.768311,173.792175 860.386292,173.792175 
	C860.386292,144.877396 860.386292,116.177612 860.386292,86.933411 
	C863.185425,86.933411 865.798035,86.933411 868.886292,86.933693 
z"/>
<path fill="#1B8473" opacity="1.000000" stroke="none" 
	d="
M691.006409,57.747536 
	C693.622009,57.747475 695.744080,57.747475 698.147705,57.747475 
	C698.147705,96.649467 698.147705,135.037750 698.147705,173.712036 
	C693.838562,173.712036 689.578674,173.712036 684.938354,173.712036 
	C684.938354,135.329254 684.938354,96.960587 684.938354,57.747601 
	C686.692505,57.747601 688.602661,57.747601 691.006409,57.747536 
z"/>
<path fill="#1F8676" opacity="1.000000" stroke="none" 
	d="
M331.557678,146.000137 
	C331.557495,155.459610 331.557495,164.419098 331.557495,173.690826 
	C326.974731,173.690826 322.777191,173.690826 318.338440,173.690826 
	C318.338440,144.915558 318.338440,116.352135 318.338440,87.361099 
	C322.508026,87.361099 326.720245,87.361099 331.557861,87.361099 
	C331.557861,106.663612 331.557861,126.081879 331.557678,146.000137 
z"/>
<path fill="#208776" opacity="1.000000" stroke="none" 
	d="
M315.348328,62.279926 
	C317.634247,55.575191 322.564728,52.528873 327.849426,54.413101 
	C331.989746,55.889313 334.600525,58.855507 334.426941,63.381439 
	C334.254944,67.866104 331.578827,70.775337 327.279785,71.885925 
	C322.862701,73.027000 318.141357,70.870789 316.325012,66.975250 
	C315.711395,65.659203 315.616302,64.101395 315.348328,62.279926 
z"/>
<path fill="#FEFEFE" opacity="1.000000" stroke="none" 
	d="
M229.761047,154.950851 
	C229.783188,143.793976 229.802994,133.130432 229.839859,122.466949 
	C229.840912,122.164375 230.023865,121.862427 229.989014,121.969749 
	C242.047028,121.969749 254.044556,121.076439 265.833160,122.261551 
	C274.744690,123.157440 280.512665,129.726913 282.637268,138.646744 
	C285.210419,149.449600 278.398438,159.664612 266.637787,160.654968 
	C254.609940,161.667816 242.430389,160.879272 229.761108,160.879272 
	C229.761108,159.004547 229.761108,157.224365 229.761047,154.950851 
z"/>
<path fill="#FDFEFE" opacity="1.000000" stroke="none" 
	d="
M260.149048,108.413437 
	C249.967834,108.534149 240.203720,108.534149 230.097015,108.534149 
	C230.097015,95.910065 230.097015,83.240173 230.097015,70.534798 
	C240.825760,70.534798 251.473160,69.763344 261.954193,70.753220 
	C272.296692,71.730019 277.817871,78.101555 278.423462,86.967987 
	C279.101318,96.892105 273.801788,104.494865 263.975677,107.619522 
	C262.878754,107.968338 261.704559,108.074196 260.149048,108.413437 
z"/>
<path fill="#FDFEFE" opacity="1.000000" stroke="none" 
	d="
M501.402161,104.614090 
	C511.509705,118.871231 512.149353,133.974609 504.995300,148.847076 
	C497.399567,164.637680 472.879150,165.112091 464.100037,149.830322 
	C456.290497,136.236237 456.712738,121.849754 464.476135,108.408585 
	C472.004761,95.373779 489.794525,93.785713 501.402161,104.614090 
z"/>
<path fill="#F9FCFB" opacity="1.000000" stroke="none" 
	d="
M799.979004,128.752777 
	C791.400818,128.752701 783.318054,128.752701 774.420166,128.752701 
	C780.833008,110.697121 786.961548,93.441917 793.598572,74.755157 
	C800.234253,93.464279 806.360291,110.736473 812.750244,128.752838 
	C808.035095,128.752838 804.254700,128.752838 799.979004,128.752777 
z"/>
<path fill="#F8FBFB" opacity="1.000000" stroke="none" 
	d="
M613.654846,81.666206 
	C614.407043,79.651688 615.020935,77.996338 616.153076,74.943436 
	C622.747620,93.498222 628.876831,110.743500 635.169067,128.447601 
	C622.357117,128.447601 610.125671,128.447601 597.042664,128.447601 
	C602.584717,112.830513 608.050598,97.427948 613.654846,81.666206 
z"/>
</svg>